<?xml version="1.0" encoding="utf-8"?>
<!-- Generator: Adobe Illustrator 16.0.0, SVG Export Plug-In . SVG Version: 6.00 Build 0)  -->
<!DOCTYPE svg PUBLIC "-//W3C//DTD SVG 1.1//EN" "http://www.w3.org/Graphics/SVG/1.1/DTD/svg11.dtd">
<svg version="1.1" id="Layer_1" xmlns:ev="http://www.w3.org/2001/xml-events"
	 xmlns="http://www.w3.org/2000/svg" xmlns:xlink="http://www.w3.org/1999/xlink" x="0px" y="0px" width="1360px" height="1200px"
	 viewBox="0 0 1360 1200" enable-background="new 0 0 1360 1200" xml:space="preserve">
<rect x="560" y="0" fill="#FFFFFF" width="80" height="40"/>
<polygon fill="#FFFFFF" points="1160,40 1160,120 1080,120 1080,200 1000,200 1000,40 920,40 920,0 1080,0 1080,40 "/>
<polygon fill="#FFFFFF" points="360,200 360,280 280,280 280,360 200,360 200,200 120,200 120,120 280,120 280,200 "/>
<polygon fill="#FFFFFF" points="800,360 800,440 720,440 720,520 640,520 640,360 560,360 560,280 720,280 720,360 "/>
<polygon fill="#FFFFFF" points="1240,520 1240,600 1160,600 1160,680 1080,680 1080,520 1000,520 1000,440 1160,440 1160,520 "/>
<polygon fill="#FFFFFF" points="440,680 440,760 360,760 360,840 280,840 280,680 200,680 200,600 360,600 360,680 "/>
<polygon fill="#FFFFFF" points="1320,1000 1320,1080 1240,1080 1240,1160 1160,1160 1160,1000 1080,1000 1080,920 1240,920 
	1240,1000 "/>
<polygon fill="#FFFFFF" points="880,840 880,920 800,920 800,1000 720,1000 720,840 640,840 640,760 800,760 800,840 "/>
<rect x="0" y="1000" fill="#FFFFFF" width="80" height="80"/>
<polygon fill="#FFFFFF" points="520,1160 520,1200 360,1200 360,1160 280,1160 280,1080 440,1080 440,1160 "/>
</svg>
