<?xml version="1.0" encoding="utf-8"?>
<!-- Generator: Adobe Illustrator 16.0.0, SVG Export Plug-In . SVG Version: 6.00 Build 0)  -->
<!DOCTYPE svg PUBLIC "-//W3C//DTD SVG 1.1//EN" "http://www.w3.org/Graphics/SVG/1.1/DTD/svg11.dtd">
<svg version="1.1" id="Layer_1" xmlns:ev="http://www.w3.org/2001/xml-events"
	 xmlns="http://www.w3.org/2000/svg" xmlns:xlink="http://www.w3.org/1999/xlink" x="0px" y="0px" width="1360px" height="1200px"
	 viewBox="0 0 1360 1200" enable-background="new 0 0 1360 1200" xml:space="preserve">
<polygon fill="#FFFFFF" points="1040,80 1040,160 960,160 960,320 880,320 880,240 800,240 800,160 880,160 880,80 "/>
<polygon fill="#FFFFFF" points="640,240 640,480 560,480 560,400 480,400 480,320 560,320 560,240 "/>
<polygon fill="#FFFFFF" points="1200,240 1200,400 1120,400 1120,480 1040,480 1040,400 960,400 960,320 1120,320 1120,240 "/>
<polygon fill="#FFFFFF" points="560,160 560,240 480,240 480,320 400,320 400,160 320,160 320,80 480,80 480,160 "/>
<polygon fill="#FFFFFF" points="880,320 880,400 800,400 800,480 720,480 720,240 800,240 800,320 "/>
<polygon fill="#FFFFFF" points="560,480 560,560 320,560 320,480 400,480 400,400 480,400 480,480 "/>
<polygon fill="#FFFFFF" points="400,320 400,400 320,400 320,480 240,480 240,400 160,400 160,240 240,240 240,320 "/>
<polygon fill="#FFFFFF" points="1040,480 1040,560 800,560 800,480 880,480 880,400 960,400 960,480 "/>
<polygon fill="#FFFFFF" points="560,640 560,720 480,720 480,800 400,800 400,720 320,720 320,640 "/>
<polygon fill="#FFFFFF" points="1040,640 1040,720 960,720 960,800 880,800 880,720 800,720 800,640 "/>
<polygon fill="#FFFFFF" points="400,800 400,880 240,880 240,960 160,960 160,800 240,800 240,720 320,720 320,800 "/>
<polygon fill="#FFFFFF" points="880,800 880,880 800,880 800,960 720,960 720,720 800,720 800,800 "/>
<polygon fill="#FFFFFF" points="1200,800 1200,960 1120,960 1120,880 960,880 960,800 1040,800 1040,720 1120,720 1120,800 "/>
<polygon fill="#FFFFFF" points="560,960 560,1040 480,1040 480,1120 320,1120 320,1040 400,1040 400,880 480,880 480,960 "/>
<polygon fill="#FFFFFF" points="1040,1040 1040,1120 880,1120 880,1040 800,1040 800,960 880,960 880,880 960,880 960,1040 "/>
<polygon fill="#FFFFFF" points="640,720 640,960 560,960 560,880 480,880 480,800 560,800 560,720 "/>
</svg>
