<?xml version="1.0" encoding="utf-8"?>
<!-- Generator: Adobe Illustrator 16.0.0, SVG Export Plug-In . SVG Version: 6.00 Build 0)  -->
<!DOCTYPE svg PUBLIC "-//W3C//DTD SVG 1.1//EN" "http://www.w3.org/Graphics/SVG/1.1/DTD/svg11.dtd">
<svg version="1.1" id="Layer_1" xmlns:ev="http://www.w3.org/2001/xml-events"
	 xmlns="http://www.w3.org/2000/svg" xmlns:xlink="http://www.w3.org/1999/xlink" x="0px" y="0px" width="1360px" height="1200px"
	 viewBox="0 0 1360 1200" enable-background="new 0 0 1360 1200" xml:space="preserve">
<rect x="960" y="120" fill="#FFFFFF" width="80" height="80"/>
<rect x="1120" y="120" fill="#FFFFFF" width="80" height="160"/>
<polygon fill="#FFFFFF" points="960,200 960,360 800,360 800,280 880,280 880,200 "/>
<rect x="240" y="320" fill="#FFFFFF" width="80" height="80"/>
<rect x="1040" y="360" fill="#FFFFFF" width="80" height="80"/>
<rect x="320" y="400" fill="#FFFFFF" width="80" height="80"/>
<rect x="640" y="360" fill="#FFFFFF" width="160" height="80"/>
<polygon fill="#FFFFFF" points="960,440 960,600 880,600 880,520 800,520 800,440 "/>
<polygon fill="#FFFFFF" points="320,480 320,720 240,720 240,800 160,800 160,400 240,400 240,480 "/>
<polygon fill="#FFFFFF" points="560,560 560,640 480,640 480,720 400,720 400,480 480,480 480,560 "/>
<rect x="1120" y="520" fill="#FFFFFF" width="80" height="160"/>
<rect x="960" y="600" fill="#FFFFFF" width="80" height="80"/>
<rect x="320" y="720" fill="#FFFFFF" width="80" height="80"/>
<rect x="240" y="800" fill="#FFFFFF" width="80" height="80"/>
<rect x="840" y="840" fill="#FFFFFF" width="80" height="80"/>
<polygon fill="#FFFFFF" points="1000,920 1000,1080 760,1080 760,1000 920,1000 920,920 "/>
</svg>
