<?xml version="1.0" encoding="utf-8"?>
<!-- Generator: Adobe Illustrator 16.0.0, SVG Export Plug-In . SVG Version: 6.00 Build 0)  -->
<!DOCTYPE svg PUBLIC "-//W3C//DTD SVG 1.1//EN" "http://www.w3.org/Graphics/SVG/1.1/DTD/svg11.dtd">
<svg version="1.1" id="Layer_1" xmlns:ev="http://www.w3.org/2001/xml-events"
	 xmlns="http://www.w3.org/2000/svg" xmlns:xlink="http://www.w3.org/1999/xlink" x="0px" y="0px" width="1360px" height="1200px"
	 viewBox="0 0 1360 1200" enable-background="new 0 0 1360 1200" xml:space="preserve">
<rect x="0" y="0" fill="#FFFFFF" width="80" height="80"/>
<rect x="80" y="80" fill="#FFFFFF" width="80" height="80"/>
<rect x="880" y="80" fill="#FFFFFF" width="80" height="80"/>
<rect x="320" y="160" fill="#FFFFFF" width="80" height="80"/>
<rect x="160" y="240" fill="#FFFFFF" width="80" height="80"/>
<rect x="640" y="240" fill="#FFFFFF" width="80" height="80"/>
<rect x="800" y="240" fill="#FFFFFF" width="80" height="80"/>
<rect x="320" y="320" fill="#FFFFFF" width="80" height="80"/>
<rect x="1120" y="0" fill="#FFFFFF" width="80" height="80"/>
<rect x="1200" y="80" fill="#FFFFFF" width="80" height="160"/>
<rect x="0" y="400" fill="#FFFFFF" width="80" height="80"/>
<rect x="80" y="480" fill="#FFFFFF" width="80" height="80"/>
<rect x="400" y="480" fill="#FFFFFF" width="80" height="80"/>
<polygon fill="#FFFFFF" points="320,480 320,640 160,640 160,560 240,560 240,480 "/>
<rect x="560" y="560" fill="#FFFFFF" width="80" height="80"/>
<rect x="1200" y="320" fill="#FFFFFF" width="80" height="80"/>
<rect x="80" y="640" fill="#FFFFFF" width="80" height="80"/>
<rect x="880" y="640" fill="#FFFFFF" width="80" height="80"/>
<rect x="0" y="720" fill="#FFFFFF" width="80" height="80"/>
<rect x="800" y="800" fill="#FFFFFF" width="80" height="80"/>
<rect x="400" y="800" fill="#FFFFFF" width="80" height="80"/>
<rect x="600" y="840" fill="#FFFFFF" width="80" height="160"/>
<rect x="320" y="880" fill="#FFFFFF" width="80" height="80"/>
<rect x="960" y="880" fill="#FFFFFF" width="160" height="80"/>
<rect x="0" y="960" fill="#FFFFFF" width="80" height="80"/>
<rect x="520" y="1000" fill="#FFFFFF" width="80" height="80"/>
<rect x="880" y="1040" fill="#FFFFFF" width="80" height="80"/>
<rect x="1280" y="960" fill="#FFFFFF" width="80" height="160"/>
<rect x="1200" y="560" fill="#FFFFFF" width="80" height="80"/>
<rect x="1120" y="480" fill="#FFFFFF" width="80" height="80"/>
<rect x="240" y="1120" fill="#FFFFFF" width="80" height="80"/>
<rect x="80" y="1040" fill="#FFFFFF" width="80" height="160"/>
</svg>
